<svg width="115" height="25" viewBox="0 0 115 25" fill="none" xmlns="http://www.w3.org/2000/svg">
<path d="M7.48 20.5C3.68 20.5 1.42 17.92 1.42 14.24V5.2H4.46V14.2C4.46 16.32 5.38 17.66 7.48 17.66C9.58 17.66 10.5 16.32 10.5 14.2V5.2H13.54V14.24C13.54 17.92 11.28 20.5 7.48 20.5ZM29.1228 5.2V20.36H25.6828L19.2628 10.26V20.36H16.2228V5.2H19.6628L26.0828 15.32V5.2H29.1228Z" fill="#DCD2F4"/>
<path d="M39.68 20.52C35.28 20.52 32.2 17.32 32.2 12.78C32.2 8.22 35.28 5.02 39.68 5.04C41.76 5.04 43.62 5.92 44.96 7.3L43.02 9.44C42.32 8.4 41.02 7.68 39.66 7.68C36.94 7.66 35.24 9.62 35.24 12.78C35.24 15.92 36.94 17.88 39.66 17.88C41.26 17.88 42.3 17.04 42.88 16.24L44.96 18.26C43.62 19.64 42 20.56 39.68 20.52ZM54.1197 17.88C56.9797 17.88 58.7597 15.92 58.7597 12.78C58.7597 9.64 56.9797 7.68 54.1197 7.68C51.2597 7.68 49.4797 9.64 49.4797 12.78C49.4797 15.92 51.2597 17.88 54.1197 17.88ZM54.1197 5.04C58.6197 5.04 61.7997 8.24 61.7997 12.78C61.7997 17.32 58.6197 20.52 54.1197 20.52C49.6197 20.52 46.4397 17.32 46.4397 12.78C46.4397 8.24 49.6197 5.04 54.1197 5.04ZM71.1202 16.84L67.0802 10.28V20.36H64.0402V5.2H67.4802L72.3202 12.94L77.1602 5.2H80.6002V20.36H77.5602V10.28L73.5202 16.84H71.1202ZM93.7695 5.2V7.8H86.6695V11.46H92.7495V14.06H86.6695V20.36H83.6295V5.2H93.7695ZM100.14 4L99.6798 15.52H96.7198L96.1798 4H100.14ZM98.1998 17.6C99.1198 17.6 99.7798 18.26 99.7798 19.18C99.7798 20.1 99.1198 20.76 98.1998 20.76C97.2798 20.76 96.6198 20.1 96.6198 19.18C96.6198 18.26 97.2798 17.6 98.1998 17.6ZM113.477 5.2V7.8H106.177V11.26H112.417V13.86H106.177V17.76H113.477V20.36H103.137V5.2H113.477Z" fill="#282725"/>
</svg>
