<svg width="14" height="20" viewBox="0 0 14 20" fill="none" xmlns="http://www.w3.org/2000/svg">
<path d="M11.2974 10.0068C11.2974 10.112 11.2752 10.2116 11.231 10.3057C11.1922 10.3942 11.1341 10.4772 11.0566 10.5547L4.48242 16.9878C4.33301 17.1372 4.15039 17.2119 3.93457 17.2119C3.79622 17.2119 3.66895 17.1787 3.55273 17.1123C3.43652 17.0459 3.34521 16.9546 3.27881 16.8384C3.2124 16.7277 3.1792 16.6004 3.1792 16.4565C3.1792 16.2518 3.25114 16.0719 3.39502 15.917L9.43799 10.0068L3.39502 4.09668C3.25114 3.94173 3.1792 3.76188 3.1792 3.55713C3.1792 3.41325 3.2124 3.28597 3.27881 3.17529C3.34521 3.05908 3.43652 2.96777 3.55273 2.90137C3.66895 2.83496 3.79622 2.80176 3.93457 2.80176C4.15039 2.80176 4.33301 2.8737 4.48242 3.01758L11.0566 9.45898C11.1341 9.53646 11.1922 9.62223 11.231 9.71631C11.2752 9.80485 11.2974 9.90169 11.2974 10.0068Z" fill="black"/>
</svg>
