<svg width="24" height="24" viewBox="0 0 24 24" fill="none" xmlns="http://www.w3.org/2000/svg">
<path d="M5.00172 18.3818C4.90211 18.2878 4.83571 18.1771 4.8025 18.0498C4.77483 17.9225 4.7776 17.7952 4.8108 17.668C4.84401 17.5407 4.90765 17.43 5.00172 17.3359L10.3142 12.0151L5.00172 6.70264C4.90765 6.60856 4.84401 6.49788 4.8108 6.37061C4.78313 6.24333 4.78313 6.11605 4.8108 5.98877C4.84401 5.86149 4.90765 5.75081 5.00172 5.65674C5.0958 5.55713 5.20647 5.49349 5.33375 5.46582C5.46103 5.43262 5.58831 5.43262 5.71559 5.46582C5.8484 5.49349 5.96185 5.55713 6.05592 5.65674L11.3684 10.9692L16.6809 5.65674C16.775 5.55713 16.8857 5.49349 17.013 5.46582C17.1402 5.43262 17.2675 5.43262 17.3948 5.46582C17.5221 5.49349 17.6355 5.55713 17.7351 5.65674C17.8292 5.75081 17.8928 5.86149 17.926 5.98877C17.9592 6.11605 17.9592 6.24333 17.926 6.37061C17.8928 6.49788 17.8292 6.60856 17.7351 6.70264L12.4226 12.0151L17.7351 17.3359C17.8292 17.43 17.8901 17.5407 17.9177 17.668C17.9509 17.7952 17.9509 17.9225 17.9177 18.0498C17.8901 18.1771 17.8292 18.2878 17.7351 18.3818C17.641 18.4814 17.5276 18.5451 17.3948 18.5728C17.2675 18.606 17.1402 18.606 17.013 18.5728C16.8857 18.5396 16.775 18.4759 16.6809 18.3818L11.3684 13.0693L6.05592 18.3818C5.96185 18.4759 5.85117 18.5396 5.72389 18.5728C5.59661 18.606 5.46933 18.606 5.34205 18.5728C5.21477 18.5396 5.10133 18.4759 5.00172 18.3818Z" fill="#282725"/>
</svg>
