<svg width="84" height="26" viewBox="0 0 84 26" fill="none" xmlns="http://www.w3.org/2000/svg">
<path d="M8.68 21.02C4.28 21.02 1.2 17.82 1.2 13.28C1.2 8.72 4.28 5.52 8.68 5.54C10.76 5.54 12.62 6.42 13.96 7.8L12.02 9.94C11.32 8.9 10.02 8.18 8.66 8.18C5.94 8.16 4.24 10.12 4.24 13.28C4.24 16.42 5.94 18.38 8.66 18.38C10.26 18.38 11.3 17.54 11.88 16.74L13.96 18.76C12.62 20.14 11 21.06 8.68 21.02ZM23.1197 18.38C25.9797 18.38 27.7597 16.42 27.7597 13.28C27.7597 10.14 25.9797 8.18 23.1197 8.18C20.2597 8.18 18.4797 10.14 18.4797 13.28C18.4797 16.42 20.2597 18.38 23.1197 18.38ZM23.1197 5.54C27.6197 5.54 30.7997 8.74 30.7997 13.28C30.7997 17.82 27.6197 21.02 23.1197 21.02C18.6197 21.02 15.4397 17.82 15.4397 13.28C15.4397 8.74 18.6197 5.54 23.1197 5.54ZM40.1202 17.34L36.0802 10.78V20.86H33.0402V5.7H36.4802L41.3202 13.44L46.1602 5.7H49.6002V20.86H46.5602V10.78L42.5202 17.34H40.1202ZM62.7695 5.7V8.3H55.6695V11.96H61.7495V14.56H55.6695V20.86H52.6295V5.7H62.7695ZM69.1398 4.5L68.6798 16.02H65.7198L65.1798 4.5H69.1398ZM67.1998 18.1C68.1198 18.1 68.7798 18.76 68.7798 19.68C68.7798 20.6 68.1198 21.26 67.1998 21.26C66.2798 21.26 65.6198 20.6 65.6198 19.68C65.6198 18.76 66.2798 18.1 67.1998 18.1ZM82.4766 5.7V8.3H75.1766V11.76H81.4166V14.36H75.1766V18.26H82.4766V20.86H72.1366V5.7H82.4766Z" fill="#282725"/>
</svg>
