<svg width="82" height="17" viewBox="0 0 82 17" fill="none" xmlns="http://www.w3.org/2000/svg">
<path d="M7.68 16.52C3.28 16.52 0.2 13.32 0.2 8.78C0.2 4.22 3.28 1.02 7.68 1.04C9.76 1.04 11.62 1.92 12.96 3.3L11.02 5.44C10.32 4.4 9.02 3.68 7.66 3.68C4.94 3.66 3.24 5.62 3.24 8.78C3.24 11.92 4.94 13.88 7.66 13.88C9.26 13.88 10.3 13.04 10.88 12.24L12.96 14.26C11.62 15.64 10 16.56 7.68 16.52ZM22.1197 13.88C24.9797 13.88 26.7597 11.92 26.7597 8.78C26.7597 5.64 24.9797 3.68 22.1197 3.68C19.2597 3.68 17.4797 5.64 17.4797 8.78C17.4797 11.92 19.2597 13.88 22.1197 13.88ZM22.1197 1.04C26.6197 1.04 29.7997 4.24 29.7997 8.78C29.7997 13.32 26.6197 16.52 22.1197 16.52C17.6197 16.52 14.4397 13.32 14.4397 8.78C14.4397 4.24 17.6197 1.04 22.1197 1.04ZM39.1202 12.84L35.0802 6.28V16.36H32.0402V1.2H35.4802L40.3202 8.94L45.1602 1.2H48.6002V16.36H45.5602V6.28L41.5202 12.84H39.1202ZM61.7695 1.2V3.8H54.6695V7.46H60.7495V10.06H54.6695V16.36H51.6295V1.2H61.7695ZM68.1398 -2.38419e-07L67.6798 11.52H64.7198L64.1798 -2.38419e-07H68.1398ZM66.1998 13.6C67.1198 13.6 67.7798 14.26 67.7798 15.18C67.7798 16.1 67.1198 16.76 66.1998 16.76C65.2798 16.76 64.6198 16.1 64.6198 15.18C64.6198 14.26 65.2798 13.6 66.1998 13.6ZM81.4766 1.2V3.8H74.1766V7.26H80.4166V9.86H74.1766V13.76H81.4766V16.36H71.1366V1.2H81.4766Z" fill="#282725"/>
</svg>
