<svg width="24" height="24" viewBox="0 0 24 24" fill="none" xmlns="http://www.w3.org/2000/svg">
<path d="M10.2568 19.3364C9.93034 19.3364 9.64258 19.1759 9.39355 18.855L5.08545 13.3682C5.00244 13.2686 4.94157 13.1689 4.90283 13.0693C4.8641 12.9642 4.84473 12.8618 4.84473 12.7622C4.84473 12.5353 4.91943 12.3499 5.06885 12.2061C5.21826 12.0566 5.40918 11.9819 5.6416 11.9819C5.91829 11.9819 6.15625 12.1175 6.35547 12.3887L10.2236 17.4521L17.6777 5.57373C17.7773 5.41878 17.8797 5.31087 17.9849 5.25C18.09 5.18359 18.2256 5.15039 18.3916 5.15039C18.6185 5.15039 18.8011 5.21956 18.9395 5.35791C19.0778 5.49626 19.147 5.67887 19.147 5.90576C19.147 6.00537 19.1304 6.10498 19.0972 6.20459C19.064 6.29867 19.0114 6.40381 18.9395 6.52002L11.0952 18.8716C10.8905 19.1815 10.611 19.3364 10.2568 19.3364Z" fill="#282725"/>
</svg>
