<svg width="24" height="24" viewBox="0 0 24 24" fill="none" xmlns="http://www.w3.org/2000/svg">
<path d="M5.20094 13.5757C4.90765 13.5757 4.64202 13.5065 4.40407 13.3682C4.16611 13.2243 3.97519 13.0334 3.83131 12.7954C3.69296 12.5575 3.62379 12.2946 3.62379 12.0068C3.62379 11.7135 3.69296 11.4479 3.83131 11.21C3.97519 10.972 4.16611 10.7839 4.40407 10.6455C4.64202 10.5016 4.90765 10.4297 5.20094 10.4297C5.4887 10.4297 5.75156 10.5016 5.98951 10.6455C6.22747 10.7839 6.41562 10.972 6.55397 11.21C6.69785 11.4479 6.76979 11.7135 6.76979 12.0068C6.76979 12.2946 6.69785 12.5575 6.55397 12.7954C6.41562 13.0334 6.22747 13.2243 5.98951 13.3682C5.75156 13.5065 5.4887 13.5757 5.20094 13.5757ZM11.3684 13.5757C11.0751 13.5757 10.8095 13.5065 10.5715 13.3682C10.3336 13.2243 10.1427 13.0334 9.99879 12.7954C9.86045 12.5575 9.79127 12.2946 9.79127 12.0068C9.79127 11.7135 9.86045 11.4479 9.99879 11.21C10.1427 10.972 10.3336 10.7839 10.5715 10.6455C10.8095 10.5016 11.0751 10.4297 11.3684 10.4297C11.6562 10.4297 11.919 10.5016 12.157 10.6455C12.395 10.7839 12.5831 10.972 12.7214 11.21C12.8653 11.4479 12.9373 11.7135 12.9373 12.0068C12.9373 12.2946 12.8653 12.5575 12.7214 12.7954C12.5831 13.0334 12.395 13.2243 12.157 13.3682C11.919 13.5065 11.6562 13.5757 11.3684 13.5757ZM17.5359 13.5757C17.2426 13.5757 16.977 13.5065 16.739 13.3682C16.5011 13.2243 16.3102 13.0334 16.1663 12.7954C16.0279 12.5575 15.9588 12.2946 15.9588 12.0068C15.9588 11.7135 16.0279 11.4479 16.1663 11.21C16.3102 10.972 16.5011 10.7839 16.739 10.6455C16.977 10.5016 17.2426 10.4297 17.5359 10.4297C17.8237 10.4297 18.0865 10.5016 18.3245 10.6455C18.5624 10.7839 18.7533 10.972 18.8972 11.21C19.0411 11.4479 19.113 11.7135 19.113 12.0068C19.113 12.2946 19.0411 12.5575 18.8972 12.7954C18.7533 13.0334 18.5624 13.2243 18.3245 13.3682C18.0865 13.5065 17.8237 13.5757 17.5359 13.5757Z" fill="#282725"/>
</svg>
