<svg width="24" height="24" viewBox="0 0 24 24" fill="none" xmlns="http://www.w3.org/2000/svg">
<path d="M6.25514 12.0068C6.25514 11.9017 6.27451 11.8049 6.31324 11.7163C6.35198 11.6222 6.41009 11.5365 6.48756 11.459L13.0701 5.01758C13.2195 4.8737 13.3993 4.80176 13.6096 4.80176C13.7535 4.80176 13.8808 4.83496 13.9915 4.90137C14.1077 4.96777 14.199 5.05908 14.2654 5.17529C14.3373 5.28597 14.3733 5.41325 14.3733 5.55713C14.3733 5.76188 14.2986 5.94173 14.1492 6.09668L8.10621 12.0068L14.1492 17.917C14.2986 18.0719 14.3733 18.2518 14.3733 18.4565C14.3733 18.6004 14.3373 18.7277 14.2654 18.8384C14.199 18.9546 14.1077 19.0459 13.9915 19.1123C13.8808 19.1787 13.7535 19.2119 13.6096 19.2119C13.3993 19.2119 13.2195 19.1372 13.0701 18.9878L6.48756 12.5547C6.41009 12.4772 6.35198 12.3942 6.31324 12.3057C6.27451 12.2116 6.25514 12.112 6.25514 12.0068Z" fill="#282725"/>
</svg>
