<svg width="24" height="24" viewBox="0 0 24 24" fill="none" xmlns="http://www.w3.org/2000/svg">
<path d="M4.52028 12.0068C4.52028 11.8021 4.59222 11.6278 4.7361 11.4839C4.88551 11.3345 5.05983 11.2598 5.25905 11.2598H10.6297V5.89746C10.6297 5.69824 10.7016 5.52669 10.8455 5.38281C10.9894 5.2334 11.1637 5.15869 11.3684 5.15869C11.5732 5.15869 11.7475 5.2334 11.8914 5.38281C12.0408 5.52669 12.1155 5.69824 12.1155 5.89746V11.2598H17.4778C17.677 11.2598 17.8486 11.3345 17.9924 11.4839C18.1419 11.6278 18.2166 11.8021 18.2166 12.0068C18.2166 12.2116 18.1419 12.3859 17.9924 12.5298C17.8486 12.6737 17.677 12.7456 17.4778 12.7456H12.1155V18.1162C12.1155 18.3154 12.0408 18.487 11.8914 18.6309C11.7475 18.7803 11.5732 18.855 11.3684 18.855C11.1637 18.855 10.9894 18.7803 10.8455 18.6309C10.7016 18.487 10.6297 18.3154 10.6297 18.1162V12.7456H5.25905C5.05983 12.7456 4.88551 12.6737 4.7361 12.5298C4.59222 12.3859 4.52028 12.2116 4.52028 12.0068Z" fill="#282725"/>
</svg>
